<svg width="24" height="24" viewBox="0 0 24 24" fill="none" xmlns="http://www.w3.org/2000/svg">
<path d="M20.4853 15.5154C19.2025 14.2274 17.6425 13.2492 15.9244 12.6554C17.1455 11.8177 18.0664 10.6112 18.5524 9.21247C19.0384 7.81374 19.064 6.2962 18.6254 4.88189C18.1869 3.46757 17.3071 2.23072 16.115 1.3523C14.9228 0.473878 13.4808 0 12 0C10.5191 0 9.07712 0.473878 7.88497 1.3523C6.69283 2.23072 5.81311 3.46757 5.37453 4.88189C4.93596 6.2962 4.96155 7.81374 5.44756 9.21247C5.93357 10.6112 6.85449 11.8177 8.07557 12.6554C5.71819 13.474 3.6741 15.006 2.227 17.0389C0.779894 19.0718 0.00155432 21.5047 0 24H1.87588C1.87588 21.3151 2.94253 18.7402 4.84116 16.8418C6.7398 14.9433 9.3149 13.8767 12 13.8767C14.6851 13.8767 17.2602 14.9433 19.1588 16.8418C21.0574 18.7402 22.1241 21.3151 22.1241 24H24C24.0038 22.4237 23.6951 20.8623 23.0919 19.406C22.4886 17.9496 21.6027 16.6273 20.4853 15.5154ZM12.5179 11.9752C11.4778 12.082 10.4301 11.8642 9.51872 11.3517C8.60736 10.8392 7.87702 10.0572 7.428 9.11294C6.97899 8.16874 6.83332 7.10869 7.01101 6.07837C7.1887 5.04806 7.68103 4.09802 8.42038 3.35873C9.15973 2.61944 10.1098 2.12715 11.1402 1.94947C12.1706 1.7718 13.2308 1.91745 14.1751 2.36643C15.1193 2.81541 15.9015 3.54569 16.414 4.45698C16.9265 5.36828 17.1444 6.41588 17.0376 7.45593C16.9177 8.61361 16.403 9.69477 15.58 10.5177C14.7569 11.3407 13.6757 11.8554 12.5179 11.9752Z" fill="#97989A"/>
</svg>
